<?xml version="1.0" encoding="UTF-8"?>
<svg width="277px" height="355px" viewBox="0 0 277 355" version="1.1" xmlns="http://www.w3.org/2000/svg" xmlns:xlink="http://www.w3.org/1999/xlink">
    <!-- Generator: Sketch 54.1 (76490) - https://sketchapp.com -->
    <title>Group</title>
    <desc>Created with Sketch.</desc>
    <g id="Page-1" stroke="none" stroke-width="1" fill="none" fill-rule="evenodd">
        <g id="src_file" transform="translate(-86.000000, -43.000000)">
            <g id="Group" transform="translate(86.491000, 43.545652)">
                <path d="M207.33,331.061348 C140.514,308.971348 66.393,309.662348 0,332.992348 C65.06,362.154348 142.824,361.429348 207.33,331.061348" id="Fill-73" fill="#779C51"></path>
                <path d="M115.144,99.692348 C123.338,96.770348 130.33,91.759348 134.65,83.658348 C139.55,74.471348 140.12,63.409348 137.881,53.240348 C133.675,34.132348 119.743,11.863348 101.352,3.52034797 C84.471,-4.13865203 63.305,2.48734797 51.07,16.414348 C38.836,30.340348 34.696,50.038348 36.551,68.482348 C37.47,77.624348 40.111,87.246348 47.104,93.206348 C52.475,97.783348 59.648,99.547348 66.593,100.804348 C80.695,103.355348 99.979,105.100348 115.144,99.692348" id="Fill-74" fill="#FFC600"></path>
                <path d="M48.679,7.52734797 C46.87,5.80134797 44.432,4.52234797 41.948,4.80634797 C39.991,5.02934797 38.221,6.21934797 37.034,7.79234797 C35.847,9.36434797 35.199,11.290348 34.889,13.236348 C34.489,15.753348 34.642,18.398348 35.639,20.743348 C36.636,23.088348 38.533,25.100348 40.937,25.947348 C43.851,26.973348 47.279,26.133348 49.552,24.040348 C51.826,21.947348 52.942,18.734348 52.697,15.654348 C52.452,12.573348 50.915,9.65934797 48.679,7.52734797" id="Fill-75" fill="#F3DF98"></path>
                <path d="M127.614,7.11234797 C128.597,9.77934797 128.516,12.868348 127.183,15.378348 C125.85,17.888348 123.222,19.724348 120.385,19.887348 C117.548,20.050348 114.631,18.421348 113.474,15.825348 C113.204,13.028348 112.94,10.158348 113.678,7.44734797 C114.416,4.73634797 116.383,2.17534797 119.125,1.56234797 C120.927,1.15934797 122.87,1.65534797 124.378,2.72034797 C125.886,3.78634797 126.975,5.38034797 127.614,7.11234797" id="Fill-76" fill="#F3DF98"></path>
                <path d="M28.983,160.232348 C25.135,183.263348 22.507,205.866348 24.402,229.140348 C25.492,242.529348 60.013,270.223348 66.648,275.966348 C91.305,297.307348 126.462,290.619348 147.72,271.180348 C153.623,265.783348 175.79,246.660348 176.656,238.646348 C179.034,216.661348 174.689,194.465348 168.375,173.273348 C163.149,155.733348 156.506,138.489348 146.854,122.940348 C137.202,107.390348 124.405,93.540348 108.59,84.329348 L54.484,95.640348 C40.888,114.624348 32.83,137.200348 28.983,160.232348 Z" id="Fill-77" fill="#FFC600"></path>
                <path d="M24.275,221.071348 C24.704,261.250348 32.44,299.892348 48.072,336.908348 C60.522,340.168348 74.295,340.874348 86.823,337.929348 C94.204,336.194348 94.293,333.945348 90.758,330.852348 C89.02,329.332348 86.427,328.597348 84.28,327.748348 C88.146,306.604348 89.313,282.766348 87.678,261.334348 L24.275,221.071348" id="Fill-78" fill="#FFC600"></path>
                <path d="M118.924,276.806348 C117.068,293.614348 117.208,310.202348 118.339,327.404348 C116.269,327.702348 109.65,330.288348 109.755,333.564348 C109.808,335.218348 113.541,336.552348 115.199,336.878348 C127.472,339.295348 140.427,339.097348 152.359,335.388348 C167.701,296.806348 176.97,252.893348 177.316,229.721348 L118.924,276.806348" id="Fill-79" fill="#FFC600"></path>
                <path d="M57.333,100.814348 C42.972,94.917348 14.516,125.088348 8.588,170.310348 C5.852,191.183348 8.63,219.574348 16.387,239.145348 C17.514,241.988348 18.808,244.850348 20.96,247.023348 C23.111,249.196348 26.3,250.574348 29.265,249.825348 C33.748,248.694348 35.787,243.594348 37.008,239.134348 C42.781,218.042348 45.325,196.222348 47.85,174.500348 C50.292,153.498348 52.733,132.495348 55.175,111.492348 L57.333,100.814348" id="Fill-80" fill="#FFC600"></path>
                <path d="M120.873,100.062348 C132.056,96.043348 145.161,104.490348 149.138,107.965348 C161.373,118.655348 172.387,130.741348 181.898,143.914348 C187.339,131.831348 195.824,121.133348 206.352,113.085348 C208.51,111.435348 210.804,109.870348 213.414,109.116348 C216.024,108.363348 219.024,108.528348 221.217,110.130348 C227.187,114.491348 225.312,125.078348 224.471,131.261348 C223.364,139.393348 220.916,147.343348 217.233,154.678348 C212.078,164.946348 205.516,175.921348 194.746,181.019348 C184.14,186.039348 171.279,184.456348 160.797,179.182348 C150.315,173.908348 141.868,165.339348 134.364,156.318348 C126.861,147.297348 120.072,137.647348 111.817,129.307348 L120.873,100.062348" id="Fill-81" fill="#FFC600"></path>
                <path d="M86.802,285.031348 C84.473,282.219348 82.322,279.317348 80.192,276.354348 C80.07,276.185348 79.434,276.403348 79.521,276.623348 C80.863,280.005348 83.067,283.069348 85.693,285.565348 C85.98,285.838348 87.118,285.412348 86.802,285.031348" id="Fill-82" fill-opacity="0.5" fill="#000000"></path>
                <path d="M139.265,270.899348 C135.996,274.100348 133.279,277.570348 129.616,280.393348 C126.061,283.133348 122.011,284.734348 118.11,286.841348 C117.592,287.121348 117.689,287.573348 118.308,287.452348 C126.455,285.862348 137.459,278.652348 141.021,270.983348 C141.449,270.061348 139.578,270.593348 139.265,270.899348" id="Fill-83" fill-opacity="0.5" fill="#000000"></path>
                <path d="M84.737,327.996348 C78.823,325.908348 71.841,326.221348 65.766,327.363348 C65.58,327.398348 65.269,327.719348 65.63,327.687348 C71.881,327.136348 77.716,327.893348 83.887,328.677348 C84.149,328.710348 85.306,328.196348 84.737,327.996348" id="Fill-84" fill-opacity="0.5" fill="#000000"></path>
                <path d="M136.026,325.263348 C129.978,324.623348 122.602,325.495348 116.973,327.845348 C116.823,327.908348 116.768,328.103348 116.986,328.083348 C119.619,327.850348 122.209,327.241348 124.829,326.884348 C128.321,326.408348 131.829,326.397348 135.333,326.101348 C135.661,326.073348 136.882,325.353348 136.026,325.263348" id="Fill-85" fill-opacity="0.5" fill="#000000"></path>
                <path d="M53.807,121.584348 C51.096,142.596348 49.315,163.661348 45.7,184.559348 C43.952,194.664348 41.878,204.715348 39.797,214.755348 C38.76,219.756348 37.652,224.742348 36.506,229.719348 C35.099,235.824348 34.256,247.406348 26.108,248.445348 C25.546,248.517348 24.715,249.433348 25.723,249.365348 C33.544,248.838348 35.7,241.446348 37.36,234.914348 C40.516,222.494348 43.299,209.980348 45.619,197.377348 C50.203,172.474348 54.356,146.749348 54.854,121.393348 C54.862,120.965348 53.851,121.241348 53.807,121.584348" id="Fill-86" fill-opacity="0.5" fill="#000000"></path>
                <path d="M61.704,126.677348 C59.881,128.470348 58.386,130.546348 56.813,132.555348 C55.28,134.512348 53.21,136.532348 52.307,138.872348 C52.239,139.050348 52.676,138.927348 52.724,138.891348 C54.811,137.364348 56.454,135.311348 58.124,133.352348 C59.887,131.285348 61.815,129.172348 63.054,126.741348 C63.406,126.049348 61.941,126.444348 61.704,126.677348" id="Fill-87" fill-opacity="0.5" fill="#000000"></path>
                <path d="M62.343,99.864348 C60.923,99.183348 59.19,99.016348 57.681,98.574348 C56.179,98.134348 54.718,97.503348 53.167,97.267348 C53.082,97.254348 52.729,97.347348 52.841,97.487348 C53.767,98.655348 55.555,99.186348 56.908,99.680348 C58.382,100.218348 59.921,100.679348 61.497,100.684348 C61.764,100.684348 62.98,100.169348 62.343,99.864348" id="Fill-88" fill-opacity="0.5" fill="#000000"></path>
                <path d="M124.581,95.098348 C122.739,95.775348 120.975,96.629348 119.118,97.272348 C117.006,98.003348 114.796,98.375348 112.638,98.935348 C112.52,98.966348 112.246,99.212348 112.515,99.236348 C116.638,99.610348 121.89,98.119348 125.254,95.727348 C126.005,95.192348 125.124,94.898348 124.581,95.098348" id="Fill-89" fill-opacity="0.5" fill="#000000"></path>
                <path d="M56.591,102.936348 C55.643,100.996348 53.741,100.585348 51.766,100.590348 C51.671,100.590348 51.392,100.780348 51.594,100.797348 C53.106,100.925348 54.57,102.282348 55.52,103.364348 C55.735,103.609348 56.757,103.277348 56.591,102.936348" id="Fill-90" fill-opacity="0.5" fill="#000000"></path>
                <path d="M157.721,144.069348 C153.059,133.033348 147.346,119.593348 138.328,111.357348 C138.201,111.242348 137.63,111.395348 137.728,111.597348 C140.448,117.179348 144.398,122.220348 147.454,127.644348 C150.56,133.155348 153.22,138.912348 155.704,144.725348 C160.934,156.966348 163.958,170.159348 169.374,182.268348 C169.59,182.750348 170.921,182.316348 170.816,181.800348 C168.204,168.994348 162.793,156.077348 157.721,144.069348" id="Fill-91" fill-opacity="0.5" fill="#000000"></path>
                <path d="M182.884,144.607348 C182.631,144.456348 181.437,144.785348 181.665,145.190348 C182.195,146.132348 182.898,146.932348 183.59,147.756348 C184.461,148.793348 185.159,149.969348 186.142,150.907348 C186.262,151.021348 186.734,150.908348 186.73,150.716348 C186.68,148.324348 184.887,145.800348 182.884,144.607348" id="Fill-92" fill-opacity="0.5" fill="#000000"></path>
                <path d="M53.161,14.472348 C52.986,13.985348 51.886,14.447348 51.789,14.819348 C51.632,15.422348 51.683,15.966348 51.722,16.581348 C51.758,17.161348 51.818,17.864348 52.1,18.374348 C52.279,18.698348 52.937,18.398348 53.039,18.136348 C53.281,17.519348 53.278,16.833348 53.322,16.176348 C53.36,15.598348 53.357,15.020348 53.161,14.472348" id="Fill-93" fill="#5D271E"></path>
                <path d="M122.486,7.02434797 C120.898,6.79734797 120.016,7.75234797 119.95,9.21934797 C119.897,10.393348 119.855,11.548348 119.664,12.710348 C119.455,13.976348 118.816,14.977348 118.329,16.127348 C118.334,16.126348 118.339,16.124348 118.343,16.122348 C118.075,16.513348 119.022,16.387348 119.234,16.256348 C119.354,16.182348 119.45,16.090348 119.56,16.009348 C119.723,15.993348 119.878,15.955348 119.999,15.891348 C121.733,14.966348 122.903,13.720348 123.608,11.878348 C124.058,10.702348 124.321,7.28534797 122.486,7.02434797" id="Fill-94" fill="#FF4949"></path>
                <path d="M47.66,26.828348 C46.712,26.487348 45.77,26.128348 44.82,25.788348 C44.574,25.699348 44.28,25.769348 44.052,25.878348 C43.936,25.934348 43.485,26.236348 43.731,26.409348 C44.807,27.161348 46.013,27.316348 47.301,27.176348 C47.387,27.167348 47.953,26.933348 47.66,26.828348" id="Fill-95" fill="#5D271E"></path>
                <path d="M119.968,17.204348 C119.045,16.172348 117.853,15.650348 116.651,15.041348 C116.506,14.968348 115.93,15.203348 116.119,15.345348 C116.934,15.956348 117.629,16.875348 118.271,17.663348 C119.093,18.672348 119.872,19.765348 120.537,20.882348 C120.763,21.263348 121.916,20.927348 121.785,20.477348 C121.416,19.207348 120.849,18.189348 119.968,17.204348" id="Fill-96" fill="#5D271E"></path>
                <path d="M48.075,22.014348 C47.732,21.444348 47.379,20.871348 47.019,20.299348 C46.584,18.580348 45.552,16.854348 44.637,15.545348 C43.703,14.207348 42.021,12.496348 40.25,13.347348 C38.426,14.224348 39.247,16.617348 40.12,17.903348 C41.629,20.129348 43.741,21.755348 46.13,22.945348 C46.523,23.140348 48.469,22.669348 48.075,22.014348" id="Fill-97" fill="#FF4949"></path>
                <path d="M77.731,54.843348 C77.426,55.158348 77.138,55.502348 76.869,55.878348 C74.849,58.706348 76.062,63.611348 76.37,66.797348 C76.594,69.111348 76.974,71.499348 78.261,73.436348 C79.554,75.383348 81.624,76.664348 83.707,77.724348 C90.573,81.219348 98.454,82.965348 106.078,81.852348 C109.16,81.403348 112.381,80.358348 114.279,77.889348 C115.869,75.822348 116.272,73.108348 116.622,70.524348 C117.132,66.754348 117.608,62.736348 115.98,59.297348 C113.363,53.769348 105.96,52.323348 100.428,51.410348 C95.857,50.656348 91.17,50.596348 86.583,51.253348 C83.334,51.719348 80.041,52.459348 77.731,54.843348" id="Fill-98" fill="#F3DF98"></path>
                <path d="M69.922,150.022348 C63.472,166.398348 63.769,184.715348 66.952,201.896348 C70.136,219.077348 76.535,235.044348 91.505,245.605348 C97.668,249.953348 105.044,253.354348 112.787,253.151348 C123.538,252.870348 133.276,246.690348 139.51,238.152348 C145.361,230.137348 148.348,220.340348 149.75,210.516348 C152.098,194.063348 150.135,177.040348 144.27,161.500348 C139.09,147.776348 130.134,133.165348 116.272,126.859348 C107.493,122.866348 96.61,122.408348 88.047,126.787348 C78.815,131.508348 73.536,140.843348 69.922,150.022348" id="Fill-99" fill="#F3DF98"></path>
                <path d="M64.352,67.974348 C63.273,65.870348 60.973,64.521348 58.615,64.349348 C56.257,64.177348 53.89,65.098348 52.082,66.620348 C51.056,67.483348 50.155,68.615348 49.995,69.947348 C49.838,71.250348 50.429,72.559348 51.312,73.530348 C52.649,74.999348 54.639,75.797348 56.624,75.862348 C58.61,75.926348 60.581,75.298348 62.282,74.271348 C63.21,73.711348 64.095,72.999348 64.566,72.023348 C65.176,70.761348 64.992,69.221348 64.352,67.974348" id="Fill-100" fill="#FF4949"></path>
                <path d="M125.155,70.292348 C126.804,70.749348 128.65,70.783348 130.147,69.954348 C131.643,69.124348 132.638,67.276348 132.119,65.646348 C131.77,64.548348 130.825,63.729348 129.793,63.217348 C127.941,62.300348 125.688,62.234348 123.786,63.041348 C122.649,63.524348 121.581,64.394348 121.288,65.594348 C121.022,66.686348 121.465,67.869348 122.238,68.685348 C123.01,69.501348 124.072,69.992348 125.155,70.292348" id="Fill-101" fill="#FF4949"></path>
                <path d="M211.477,123.451348 C209.799,123.005348 208.038,122.705348 206.331,123.021348 C204.624,123.337348 202.972,124.364348 202.283,125.957348 C201.433,127.926348 202.262,130.321348 203.812,131.803348 C205.362,133.286348 207.487,134.006348 209.588,134.435348 C211.218,134.768348 212.92,134.949348 214.534,134.550348 C216.148,134.150348 217.669,133.082348 218.254,131.525348 C218.953,129.665348 218.161,127.489348 216.744,126.096348 C215.328,124.702348 213.398,123.962348 211.477,123.451348" id="Fill-102" fill="#E4706E"></path>
                <path d="M212.758,115.486348 C211.811,116.564348 211.268,117.990348 211.26,119.426348 C211.256,119.930348 211.348,120.492348 211.747,120.799348 C212.275,121.206348 213.046,120.960348 213.614,120.610348 C215.461,119.470348 216.644,117.325348 216.623,115.154348 C216.618,114.647348 216.519,114.081348 216.11,113.782348 C215.722,113.497348 215.182,113.550348 214.722,113.692348 C213.435,114.091348 213.647,114.473348 212.758,115.486348" id="Fill-103" fill="#E4706E"></path>
                <path d="M218.073,116.381348 C217.201,117.762348 216.795,119.432348 216.935,121.059348 C216.972,121.486348 217.088,121.971348 217.469,122.166348 C217.728,122.299348 218.049,122.254348 218.305,122.118348 C218.561,121.982348 218.764,121.766348 218.954,121.546348 C219.969,120.370348 220.768,118.867348 220.587,117.324348 C220.513,116.696348 220.196,116.011348 219.586,115.846348 C219.16,115.731348 218.699,115.909348 218.366,116.197348 C218.033,116.486348 218.309,116.009348 218.073,116.381348" id="Fill-104" fill="#E4706E"></path>
                <path d="M221.885,123.597348 C221.979,123.030348 221.959,122.410348 221.642,121.931348 C221.456,121.649348 221.112,121.421348 220.792,121.528348 C220.525,121.616348 220.378,121.897348 220.274,122.157348 C219.916,123.049348 219.738,124.012348 219.751,124.972348 C219.757,125.381348 219.873,125.884348 220.27,125.983348 C220.631,126.074348 220.96,125.754348 221.164,125.443348 C221.529,124.887348 221.777,124.253348 221.885,123.597348" id="Fill-105" fill="#E4706E"></path>
                <path d="M207.517,115.784348 C206.681,116.430348 206.11,117.410348 205.96,118.456348 C205.908,118.821348 205.907,119.202348 206.035,119.547348 C206.163,119.893348 206.436,120.198348 206.792,120.294348 C207.407,120.461348 208.001,119.984348 208.412,119.497348 C209.113,118.664348 209.649,117.693348 209.979,116.656348 C210.14,116.147348 210.243,115.560348 209.961,115.107348 C209.606,114.536348 208.764,114.449348 208.155,114.736348 C207.547,115.023348 208.049,115.373348 207.517,115.784348" id="Fill-106" fill="#E4706E"></path>
                <path d="M24.202,249.096348 C23.562,248.058348 23.128,246.915348 22.473,245.890348 C22.18,245.431348 20.952,245.813348 21.002,246.368348 C21.195,248.483348 23.147,251.373348 25.239,251.993348 C25.39,252.038348 25.818,251.963348 25.782,251.733348 C25.627,250.761348 24.706,249.912348 24.202,249.096348" id="Fill-107" fill="#2D100E"></path>
                <path d="M26.502,246.982348 C26.272,246.665348 25.455,247.050348 25.37,247.350348 C24.837,249.215348 26.211,250.700348 26.996,252.219348 C27.08,252.382348 27.547,252.236348 27.501,252.055348 C27.087,250.414348 27.555,248.435348 26.502,246.982348" id="Fill-108" fill="#2D100E"></path>
                <path d="M29.412,245.430348 C29.182,245.142348 28.379,245.478348 28.308,245.789348 C28.054,246.901348 28.313,248.087348 28.433,249.208348 C28.543,250.237348 28.404,251.428348 28.999,252.309348 C29.107,252.470348 29.493,252.275348 29.567,252.164348 C30.653,250.528348 30.663,247.001348 29.412,245.430348" id="Fill-109" fill="#2D100E"></path>
                <path d="M32.522,243.979348 C32.381,243.649348 31.546,243.929348 31.508,244.235348 C31.249,246.308348 31.662,248.491348 31.276,250.541348 C31.238,250.743348 31.716,250.588348 31.769,250.452348 C32.584,248.376348 33.462,246.192348 32.522,243.979348" id="Fill-110" fill="#2D100E"></path>
                <path d="M67.717,335.641348 C67.544,334.698348 67.623,333.689348 67.271,332.793348 C67.21,332.636348 66.885,332.764348 66.811,332.845348 C65.268,334.535348 64.882,337.773348 66.738,339.391348 C67.167,339.764348 68.459,339.349348 68.409,338.723348 C68.326,337.663348 67.909,336.683348 67.717,335.641348" id="Fill-111" fill="#2D100E"></path>
                <path d="M75.358,335.819348 C75.178,334.927348 74.983,333.877348 74.232,333.302348 C74.11,333.209348 73.847,333.295348 73.774,333.419348 C73.318,334.191348 73.3,335.065348 73.267,335.949348 C73.23,336.897348 73.13,337.949348 73.546,338.823348 C73.849,339.460348 75.236,338.877348 75.395,338.355348 C75.655,337.499348 75.534,336.685348 75.358,335.819348" id="Fill-112" fill="#2D100E"></path>
                <path d="M80.737,332.251348 C80.614,332.181348 80.284,332.296348 80.3,332.460348 C80.396,333.444348 80.69,334.417348 80.909,335.379348 C81.13,336.349348 80.85,337.585348 81.512,338.373348 C81.822,338.742348 82.692,338.314348 82.899,338.019348 C84.2,336.156348 82.449,333.220348 80.737,332.251348" id="Fill-113" fill="#2D100E"></path>
                <path d="M88.463,331.320348 C88.356,331.304348 87.765,331.469348 87.967,331.653348 C88.593,332.220348 89.029,332.873348 89.322,333.664348 C89.706,334.697348 89.387,335.712348 89.249,336.748348 C89.154,337.461348 90.641,336.945348 90.863,336.689348 C92.758,334.514348 91.047,331.700348 88.463,331.320348" id="Fill-114" fill="#2D100E"></path>
                <path d="M114.356,330.161348 C112.351,331.090348 109.826,334.698348 111.893,336.683348 C112.263,337.038348 113.346,336.659348 113.455,336.176348 C113.686,335.145348 113.472,334.086348 113.677,333.037348 C113.887,331.964348 114.593,331.217348 115.244,330.391348 C115.607,329.931348 114.5,330.095348 114.356,330.161348" id="Fill-115" fill="#2D100E"></path>
                <path d="M120.998,331.797348 C119.435,332.769348 117.622,335.944348 119.313,337.532348 C119.725,337.920348 120.735,337.483348 120.903,337.016348 C121.246,336.062348 121.058,335.027348 121.208,334.035348 C121.321,333.282348 121.682,332.535348 121.645,331.771348 C121.633,331.530348 121.078,331.747348 120.998,331.797348" id="Fill-116" fill="#2D100E"></path>
                <path d="M128.586,332.247348 C128.444,332.125348 128.101,332.244348 128.017,332.393348 C127.49,333.331348 127.439,334.425348 127.263,335.473348 C127.113,336.373348 126.52,337.714348 127.305,338.417348 C127.615,338.695348 128.226,338.415348 128.482,338.196348 C129.896,336.985348 130.05,333.512348 128.586,332.247348" id="Fill-117" fill="#2D100E"></path>
                <path d="M138.143,332.953348 C138.017,332.876348 137.64,332.992348 137.624,333.159348 C137.533,334.126348 137.571,335.091348 137.483,336.060348 C137.414,336.815348 136.7,337.959348 137.237,338.607348 C137.486,338.909348 138.142,338.613348 138.387,338.472348 C140.497,337.254348 140.038,334.102348 138.143,332.953348" id="Fill-118" fill="#2D100E"></path>
                <path d="M68.134,41.578348 C67.012,41.386348 65.827,41.734348 64.932,42.359348 C64.037,42.983348 63.407,43.860348 62.956,44.782348 C61.79,47.167348 61.769,49.964348 62.899,52.362348 C63.529,53.700348 64.647,55.000348 66.254,55.324348 C68.295,55.735348 70.314,54.408348 71.401,52.837348 C73.345,50.029348 73.216,46.221348 71.085,43.520348 C70.367,42.610348 69.372,41.789348 68.134,41.578348" id="Fill-119" fill="#2D100E"></path>
                <path d="M115.296,41.101348 C114.711,40.277348 113.904,39.531348 112.908,39.331348 C112.005,39.151348 111.057,39.456348 110.345,40.012348 C109.632,40.567348 109.134,41.352348 108.781,42.178348 C107.867,44.316348 107.876,46.834348 108.806,49.001348 C109.324,50.209348 110.234,51.387348 111.528,51.690348 C113.17,52.075348 114.778,50.894348 115.637,49.488348 C117.171,46.975348 117.031,43.548348 115.296,41.101348" id="Fill-120" fill="#2D100E"></path>
                <path d="M109.176,66.498348 C109.799,65.971348 110.375,65.357348 110.693,64.606348 C111.011,63.855348 111.037,62.945348 110.603,62.253348 C109.988,61.272348 108.697,61.003348 107.546,60.874348 C103.519,60.420348 99.426,60.566348 95.441,61.305348 C94.48,61.483348 93.382,61.812348 93.021,62.721348 C92.665,63.619348 93.23,64.612348 93.866,65.340348 C95.733,67.474348 98.457,68.837348 101.284,69.051348 C104.112,69.264348 107.009,68.327348 109.176,66.498348" id="Fill-121" fill="#2D100E"></path>
                <path d="M104.085,65.033348 C103.866,64.610348 103.015,65.084348 102.911,65.401348 C102.227,67.484348 102.563,69.713348 102.722,71.870348 C102.854,73.652348 102.81,75.613348 103.83,77.134348 C103.895,77.231348 104.12,77.146348 104.158,77.055348 C104.925,75.223348 104.836,73.330348 104.815,71.367348 C104.793,69.303348 105.056,66.910348 104.085,65.033348" id="Fill-122" fill="#2D100E"></path>
                <path d="M108.884,72.089348 C108.809,71.457348 107.431,72.148348 107.252,72.390348 C105.988,74.099348 105.724,77.409348 102.55,76.082348 C100.952,75.414348 99.611,73.634348 98.819,72.169348 C98.741,72.024348 98.453,72.149348 98.386,72.249348 C96.394,75.242348 100.96,77.991348 103.546,77.891348 C106.207,77.788348 109.208,74.817348 108.884,72.089348" id="Fill-123" fill="#2D100E"></path>
                <path d="M60.886,31.669348 C61.07,30.690348 62.548,29.985348 63.305,29.572348 C65.068,28.612348 68.017,28.009348 69.839,29.079348 C70.414,29.417348 70.551,29.814348 70.443,30.219348 C70.514,30.353348 70.567,30.501348 70.58,30.677348 C70.645,31.573348 69.327,32.270348 68.688,32.598348 C66.707,33.613348 64.098,34.138348 61.932,33.424348 C61.08,33.144348 60.726,32.520348 60.886,31.669348" id="Fill-124" fill-opacity="0.5" fill="#000000"></path>
                <path d="M118.288,30.750348 C118.144,29.795348 116.736,29.059348 116.017,28.633348 C114.342,27.641348 111.505,26.953348 109.701,27.927348 C109.132,28.234348 108.985,28.614348 109.076,29.011348 C109.002,29.138348 108.946,29.279348 108.927,29.450348 C108.833,30.316348 110.086,31.038348 110.693,31.378348 C112.578,32.431348 115.089,33.031348 117.213,32.415348 C118.049,32.173348 118.414,31.580348 118.288,30.750348" id="Fill-125" fill-opacity="0.5" fill="#000000"></path>
                <path d="M217.458,189.600348 C220.306,148.409348 224.576,42.453348 227.437,1.97634797 C223.366,0.177347972 219.081,-0.247652028 215.313,0.975347972 C212.56,42.227348 208.322,148.229348 206.539,189.340348 C210.261,190.249348 213.895,190.276348 217.458,189.600348" id="Fill-126" fill="#5D271E"></path>
                <path d="M227.393,2.02134797 C223.8,-0.269652028 219.06,-0.643652028 215.152,1.05534797 C218.881,2.88134797 223.266,2.47234797 227.393,2.02134797" id="Fill-127" fill="#8B4B38"></path>
                <path d="M275.657,15.251348 C241.192,10.262348 201.677,9.68934797 164.51,9.26434797 C162.752,31.410348 162.142,60.692348 161.864,74.904348 C199.238,81.132348 235.251,83.423348 272.986,80.741348 L275.657,15.251348" id="Fill-128" fill="#D17E56"></path>
                <path d="M206.672,133.048348 C207.851,135.262348 209.651,137.141348 211.812,138.415348 C213.685,139.518348 215.916,140.173348 218.047,139.745348 C221.031,139.147348 223.239,136.580348 224.626,133.871348 C227.996,127.285348 227.685,118.957348 223.83,112.642348 C222.943,111.188348 221.854,109.810348 220.408,108.908348 C216.842,106.682348 211.85,108.017348 208.976,111.086348 C206.102,114.155348 205.011,118.510348 204.794,122.709348 C204.611,126.251348 205.004,129.918348 206.672,133.048348" id="Fill-129" fill="#F3DF98"></path>
                <path d="M205.953,135.588348 C208.166,136.074348 212.548,136.224348 213.834,133.844348 C214.164,133.233348 212.526,132.909348 212.191,133.025348 C211.024,133.426348 209.945,133.885348 208.712,134.064348 C207.54,134.235348 206.349,134.070348 205.186,134.310348 C203.982,134.559348 205.453,135.479348 205.953,135.588348" id="Fill-130" fill="#2D100E"></path>
                <path d="M202.246,133.524348 C204.36,133.349348 206.858,132.704348 208.75,131.741348 C209.638,131.289348 207.755,130.419348 207.185,130.648348 C206.301,131.004348 205.462,131.488348 204.59,131.878348 C203.664,132.291348 202.664,132.645348 201.782,133.139348 C201.471,133.313348 202.103,133.536348 202.246,133.524348" id="Fill-131" fill="#2D100E"></path>
                <path d="M200.607,131.199348 C200.586,131.417348 200.956,131.528348 201.124,131.502348 C202.391,131.305348 203.482,130.661348 204.603,130.066348 C205.768,129.447348 207.022,128.938348 208.099,128.173348 C208.896,127.607348 206.592,126.887348 206.142,127.015348 C204.974,127.345348 203.969,127.954348 202.956,128.607348 C202.053,129.189348 200.72,130.037348 200.607,131.199348" id="Fill-132" fill="#2D100E"></path>
                <path d="M199.201,128.813348 C199.175,128.947348 199.456,129.019348 199.542,128.956348 C201.131,127.776348 202.453,126.326348 203.868,124.951348 C205.177,123.679348 206.979,122.628348 207.819,120.981348 C208.067,120.496348 206.808,120.260348 206.545,120.345348 C203.24,121.416348 199.864,125.403348 199.201,128.813348" id="Fill-133" fill="#2D100E"></path>
                <path d="M200.68,35.816348 C201.977,32.783348 202.449,29.470348 201.707,26.208348 C201.201,23.986348 195.747,25.375348 195.48,27.294348 C195.037,30.478348 194.694,33.666348 194.416,36.861348 C193.289,39.089348 191.591,41.105348 189.591,42.929348 C186.935,45.352348 185.655,43.488348 184.086,41.957348 C184.321,36.520348 184.776,31.092348 185.325,25.549348 C185.57,23.077348 180.311,24.339348 179.757,26.103348 C178.024,31.623348 177.126,37.525348 176.951,43.452348 C175.247,47.677348 177.443,55.315348 178.15,59.072348 C178.182,59.248348 178.21,59.425348 178.244,59.601348 C178.6,61.793348 184.288,60.373348 184.156,58.126348 C183.945,54.517348 183.892,50.964348 183.939,47.431348 C185.267,47.873348 186.78,47.811348 188.335,47.290348 C190.294,46.633348 192.169,45.611348 193.879,44.334348 C193.57,49.350348 192.311,56.631348 194.626,61.140348 C195.361,62.572348 198.15,61.674348 198.658,60.437348 C200.691,55.478348 199.735,48.816348 200.056,43.467348 C200.209,40.913348 200.428,38.363348 200.68,35.816348" id="Fill-134" fill="#B76541"></path>
                <path d="M211.48,43.310348 C211.337,44.762348 209.993,45.869348 208.507,46.810348 C208.606,46.139348 208.775,45.476348 208.946,44.832348 C209.153,44.057348 211.889,39.166348 211.48,43.310348 Z M221.772,54.844348 C216.416,58.679348 210.541,55.933348 208.841,50.217348 C213.718,49.069348 219.751,44.951348 218.532,40.102348 C217.839,37.347348 213.508,36.958348 211.338,37.373348 C207.837,38.041348 205.294,40.025348 203.414,43.011348 C199.643,49.004348 202.754,56.296348 208.564,59.404348 C213.94,62.279348 221.487,60.392348 225.1,55.669348 C226.34,54.049348 222.459,54.351348 221.772,54.844348 L221.772,54.844348 Z" id="Fill-135" fill="#B76541"></path>
                <path d="M229.465,23.772348 C229.247,22.811348 227.325,23.583348 227.078,24.189348 C224.318,30.948348 224.04,38.734348 223.508,45.952348 C223.03,52.443348 222.077,59.399348 223.68,65.787348 C224.013,67.113348 226.893,66.170348 227.181,65.176348 C229.203,58.198348 228.923,50.621348 229.383,43.414348 C229.789,37.062348 230.887,30.041348 229.465,23.772348" id="Fill-136" fill="#B76541"></path>
                <path d="M241.028,24.518348 C240.759,24.056348 239.596,24.435348 239.401,24.806348 C236.446,30.415348 237.216,38.087348 236.958,44.298348 C236.694,50.644348 236.001,57.407348 237.582,63.619348 C237.918,64.936348 240.805,64.014348 241.083,63.008348 C242.972,56.184348 242.568,48.852348 242.599,41.824348 C242.622,36.481348 243.777,29.236348 241.028,24.518348" id="Fill-137" fill="#B76541"></path>
                <path d="M257.36,52.301348 C257.155,53.316348 256.886,54.314348 256.552,55.294348 C255.744,57.612348 255.502,58.084348 255.826,56.710348 C252.107,53.320348 251.497,45.636348 253.119,40.428348 C253.35,40.366348 253.542,40.294348 253.649,40.220348 C256.533,38.241348 257.668,45.288348 257.789,46.588348 C257.968,48.514348 257.677,50.414348 257.36,52.301348 Z M262.049,39.249348 C260.369,36.617348 256.559,36.064348 253.638,37.169348 C253.217,37.208348 252.752,37.363348 252.595,37.584348 C252.566,37.626348 252.538,37.668348 252.509,37.710348 C251.741,38.164348 251.078,38.747348 250.608,39.466348 C250.275,39.977348 250.406,40.281348 250.756,40.446348 C247.848,45.478348 246.619,50.843348 249.062,56.752348 C250.901,61.199348 257.483,62.888348 260.664,58.632348 C264.403,53.629348 265.482,44.628348 262.049,39.249348 L262.049,39.249348 Z" id="Fill-138" fill="#B76541"></path>
            </g>
        </g>
    </g>
</svg>